Coordinates
version=1
nRows=4
nColumns=63
inDegrees=yes

Units are S.I. units (second, meters, Newtons, ...)
If the header above contains a line with 'inDegrees', this indicates whether rotational values are in degrees (yes) or radians (no).

endheader
time	pelvis_tilt	pelvis_list	pelvis_rotation	pelvis_tx	pelvis_ty	pelvis_tz	hip_flexion_r	hip_adduction_r	hip_rotation_r	knee_angle_r	knee_angle_r_beta	ankle_angle_r	subtalar_angle_r	mtp_angle_r	hip_flexion_l	hip_adduction_l	hip_rotation_l	knee_angle_l	knee_angle_l_beta	ankle_angle_l	subtalar_angle_l	mtp_angle_l	L5_S1_Flex_Ext	L5_S1_Lat_Bending	L5_S1_axial_rotation	L4_L5_Flex_Ext	L4_L5_Lat_Bending	L4_L5_axial_rotation	L3_L4_Flex_Ext	L3_L4_Lat_Bending	L3_L4_axial_rotation	L2_L3_Flex_Ext	L2_L3_Lat_Bending	L2_L3_axial_rotation	L1_L2_Flex_Ext	L1_L2_Lat_Bending	L1_L2_axial_rotation	L1_T12_Flex_Ext	L1_T12_Lat_Bending	L1_T12_axial_rotation	Abs_r3	Abs_r2	Abs_r1	Abs_t1	Abs_t2	neck_flexion	neck_bending	neck_rotation	arm_flex_r	arm_add_r	arm_rot_r	elbow_flex_r	pro_sup_r	wrist_flex_r	wrist_dev_r	arm_flex_l	arm_add_l	arm_rot_l	elbow_flex_l	pro_sup_l	wrist_flex_l	wrist_dev_l
      0.01666667	    125.55723347	     49.87593612	   -169.04270813	      0.07377366	      2.92529037	      0.01678017	     49.25842556	     -1.80016014	    -22.29300560	     21.86597905	      0.38163333	     29.02168173	     18.24343247	      0.00000000	     67.97153133	    -25.75507134	    -12.04702682	     50.33491969	      0.87851008	     45.58828110	     13.87018075	      0.00000000	     -0.03756332	      1.64858494	      0.75721128	     -0.06975884	      2.19261797	      0.80453698	     -0.06171278	      4.00836942	      0.80453698	     -0.04293112	      4.00836942	      0.66255987	     -0.03488130	      3.36179440	      0.61523416	     -0.02146368	      2.55365807	      0.56790846	     -0.26831105	     18.64912253	      4.21138197	      0.00000000	      0.00000000	     22.92492086	     -9.02716979	     30.95144205	     36.64129287	     14.44470061	     -8.99963641	     14.21373715	     89.99559364	      0.00000000	      0.00000000	     31.70556442	     14.99429132	     10.00672993	     10.29979973	     89.99559364	      0.00000000	      0.00000000
      0.03333333	    125.61853737	     50.04981413	   -168.83195046	      0.07394458	      2.92516234	      0.01669630	     48.98023919	     -1.55805276	    -21.88200650	     22.15210359	      0.38662714	     28.83109809	     18.36568959	      0.00000000	     68.24170250	    -25.69898902	    -12.28355674	     50.26103186	      0.87722049	     45.53145595	     13.79408582	      0.00000000	     -0.03455250	      1.66939651	      0.76102027	     -0.06416746	      2.22029735	      0.80858404	     -0.05676631	      4.05897067	      0.80858404	     -0.03949006	      4.05897067	      0.66589274	     -0.03208546	      3.40423336	      0.61832897	     -0.01974330	      2.58589519	      0.57076520	     -0.24680508	     18.88454717	      4.23256645	      0.00000000	      0.00000000	     22.91567870	     -9.02583613	     30.94306788	     36.61588329	     14.27117459	     -9.03615916	     14.27205297	     89.99559364	      0.00000000	      0.00000000	     31.52314260	     14.93760340	     10.00267804	     10.09932477	     89.99559364	      0.00000000	      0.00000000
      0.05000000	    125.72778620	     50.19833743	   -169.08102482	      0.07381790	      2.92486011	      0.01573696	     48.90756584	     -1.04107647	    -21.24997522	     22.57945162	      0.39408577	     28.49037736	     18.27557149	      0.00000000	     68.54266039	    -26.21399327	    -12.98728896	     50.48032215	      0.88104783	     45.56700395	     14.17602159	      0.00000000	     -0.03568525	      1.68261475	      0.86560789	     -0.06627107	      2.23787761	      0.91970838	     -0.05862729	      4.09110950	      0.91970838	     -0.04078467	      4.09110950	      0.75740690	     -0.03313732	      3.43118799	      0.70330641	     -0.02039055	      2.60637024	      0.64920592	     -0.25489615	     19.03407454	      4.81425139	      0.00000000	      0.00000000	     23.31969667	     -9.11689717	     31.16399200	     36.61474945	     14.11090418	     -9.20080374	     14.48339007	     89.99559364	      0.00000000	      0.00000000	     31.79806221	     15.13501357	      9.90153268	      9.07606150	     89.99559364	      0.00000000	      0.00000000
      0.06666667	    126.07785358	     49.87981759	   -169.47370606	      0.07329798	      2.92467700	      0.01465668	     48.84886849	     -0.89459221	    -20.48408844	     22.56254566	      0.39379071	     28.15665775	     18.32517307	      0.00000000	     68.49592656	    -26.31112482	    -13.96518913	     50.32891229	      0.87840523	     45.36145755	     14.16062777	      0.00000000	     -0.03840136	      1.63459193	      0.96041087	     -0.07131517	      2.17400726	      1.02043655	     -0.06308960	      3.97434681	      1.02043655	     -0.04388892	      3.97434681	      0.84035951	     -0.03565950	      3.33325986	      0.78033383	     -0.02194254	      2.53198290	      0.72030815	     -0.27429708	     18.49083081	      5.34151715	      0.00000000	      0.00000000	     23.58631006	     -9.15977518	     31.28890408	     36.68457982	     14.09656790	     -9.31209517	     14.46960578	     89.99559364	      0.00000000	      0.00000000	     31.84056976	     15.04053091	      9.77256481	      8.93714546	     89.99559364	      0.00000000	      0.00000000
